PathFileType	4	(X/Y/Z)	TVC_16_BWA4_walk_RCNL2025.trc
DataRate	CameraRate	NumFrames	NumMarkers	Units	OrigDataRate	OrigDataStartFrame	OrigNumFrames
100	100	11	27	mm	100	711	947
Frame#	Time	R_Shoulder			L_Shoulder			C7			J_Notch			R_Elbow			L_Elbow			R_Wrist			L_Wrist			R_Asis			L_Asis			R_Psis			L_Psis			Sacral			Thoracic			Sternum			R_Thigh_Lateral			R_Knee_Lateral			R_Shank_Lateral			R_Ankle_Lateral			R_Heel			R_Toe			L_Thigh_Lateral			L_Knee_Lateral			L_Shank_Lateral			L_Ankle_Lateral			L_Heel			L_Toe		
		X1	Y1	Z1	X2	Y2	Z2	X3	Y3	Z3	X4	Y4	Z4	X5	Y5	Z5	X6	Y6	Z6	X7	Y7	Z7	X8	Y8	Z8	X9	Y9	Z9	X10	Y10	Z10	X11	Y11	Z11	X12	Y12	Z12	X13	Y13	Z13	X14	Y14	Z14	X15	Y15	Z15	X16	Y16	Z16	X17	Y17	Z17	X18	Y18	Z18	X19	Y19	Z19	X20	Y20	Z20	X21	Y21	Z21	X22	Y22	Z22	X23	Y23	Z23	X24	Y24	Z24	X25	Y25	Z25	X26	Y26	Z26	X27	Y27	Z27
711	7.10000000	377.866333	1281.615723	419.897064	353.632019	1265.098877	91.881805	301.611206	1335.912964	262.373047	427.399292	1193.029785	265.134766	277.798462	991.006775	522.476440	375.333832	940.133972	47.001110	314.803421	762.187378	543.519501	480.811722	759.520630	112.246033	349.006714	855.171509	416.275726	309.146698	868.065186	155.294052	169.436615	907.947754	361.912476	156.113480	907.377380	255.783844	162.775047	907.662567	308.848160	202.415482	1087.970459	286.997498	434.270966	999.313110	264.603699	353.699890	588.159485	522.381165	459.625488	443.145660	433.475037	472.129547	292.727051	486.873352	491.066895	69.731560	413.850922	440.084015	53.884418	366.252747	608.845886	71.186058	366.143799	299.490295	576.495667	83.173248	349.221405	406.347839	186.312820	272.379639	266.552917	133.536057	193.628387	60.016644	223.393188	150.641083	62.829041	269.609100	326.370972	40.014042	257.185028
712	7.11000000	381.822235	1280.929443	420.233093	356.731293	1264.692871	92.235985	305.199493	1335.481079	262.918121	430.816772	1192.458862	265.251099	281.432251	990.359924	522.631714	378.004608	939.449219	47.803745	317.369400	761.386322	543.813995	482.799774	758.700317	113.714756	352.905731	854.517822	416.174500	311.945709	867.808960	155.361893	173.129517	907.460999	362.662933	159.333694	907.029114	256.594788	166.231606	907.245056	309.628860	205.897324	1087.572754	287.750427	437.613281	998.715942	264.480286	355.458588	586.625305	521.689087	461.543793	442.003357	432.383514	474.866516	291.618896	486.128479	497.317413	68.906448	412.899628	446.434906	52.545452	365.350830	615.139832	71.030228	365.037415	301.258820	576.051819	83.250603	350.944733	405.703491	186.257965	273.435242	266.201233	133.630356	193.685165	60.093578	223.446976	150.763046	63.019745	269.678253	326.362152	40.001354	257.166016
713	7.12000000	385.797821	1280.200317	420.653046	359.814545	1264.283325	92.663803	308.803101	1335.019043	263.554932	434.254456	1191.871582	265.437622	285.165741	989.653748	522.881592	380.643555	938.750000	48.654137	320.093674	760.540741	544.229095	484.701843	757.847992	115.245827	356.896057	853.849426	416.063904	314.751007	867.532288	155.456421	176.884811	906.924133	363.504669	162.585052	906.640198	257.492188	169.734932	906.782166	310.498428	209.416946	1087.133423	288.574615	440.984314	998.107300	264.401062	357.498810	585.079285	520.866760	463.737976	440.947540	431.211060	477.387268	290.497650	485.384766	502.223419	68.083397	412.138763	451.386536	51.340996	364.687134	620.033203	70.420692	364.068420	303.283875	575.606506	83.359085	352.747345	405.031738	186.244385	274.571869	265.841400	133.757004	193.753204	60.182537	223.511398	150.894028	63.224529	269.759277	326.362976	39.990284	257.146362
714	7.13000000	389.798981	1279.435547	421.157928	362.895660	1263.877075	93.167053	312.433075	1334.536133	264.283844	437.718750	1191.272217	265.697876	289.000580	988.895752	523.226685	383.250977	938.046631	49.544106	322.984100	759.654572	544.749359	486.519211	756.974579	116.828991	360.966705	853.177856	415.938721	317.565796	867.239441	155.576782	180.693771	906.353088	364.427856	165.865265	906.223633	258.464417	173.279518	906.288361	311.446136	212.975739	1086.665894	289.460327	444.386169	997.491089	264.366241	359.888214	583.562012	519.934753	466.208710	439.986908	429.976929	479.773590	289.378418	484.634094	505.919922	67.243431	411.536804	455.073303	50.253670	364.225922	623.675293	69.368546	363.211334	305.585266	575.165466	83.496368	354.615662	404.337860	186.269501	275.774292	265.477753	133.912933	193.831818	60.285309	223.585876	151.033905	63.445187	269.851562	326.373718	39.980362	257.125854
715	7.14000000	393.833191	1278.643921	421.746246	365.991119	1263.482300	93.746239	316.101440	1334.044556	265.103485	441.216461	1190.665527	266.033966	292.937958	988.095642	523.665100	385.827484	937.349731	50.466270	326.043945	758.733917	545.360901	488.252930	756.090790	118.453903	365.102631	852.515503	415.798035	320.395905	866.936218	155.723114	184.545868	905.766785	365.419952	169.171738	905.793518	259.497742	176.858803	905.780151	312.458847	216.573761	1086.186523	290.395630	447.820984	996.871521	264.374786	362.680481	582.121033	518.922119	468.947784	439.129944	428.703583	482.107422	288.282806	483.871429	508.579437	66.384987	411.061066	457.670593	49.280602	363.926605	626.253723	67.914993	362.444733	308.158203	574.732849	83.662476	356.534027	403.628357	186.331940	277.025208	265.115356	134.095963	193.919846	60.404057	223.670074	151.182632	63.683430	269.954742	326.394257	39.970654	257.104614
716	7.15000000	397.908447	1277.835693	422.414062	369.119232	1263.108521	94.400429	319.819977	1333.558350	266.010559	444.754089	1190.057861	266.446472	296.978149	987.265442	524.192261	388.374023	936.670410	51.414383	329.272247	757.787872	546.052124	489.903915	755.207184	120.110210	369.285675	851.875610	415.645966	323.249634	866.630066	155.896301	188.429504	905.186035	366.465881	172.502075	905.364868	260.576569	180.465790	905.275452	313.521225	220.209656	1085.713501	291.366852	451.290771	996.254150	264.424622	365.910950	580.808228	517.864746	471.939453	438.385193	427.415741	484.465637	287.236877	483.095856	510.398682	65.521118	410.680084	459.380554	48.429661	363.747650	627.980530	66.128197	361.751617	310.974213	574.312134	83.859718	358.485474	402.911041	186.431839	278.306610	264.760376	134.304794	194.015671	60.541344	223.763931	151.340149	63.940975	270.068817	326.424225	39.959904	257.082947
717	7.16000000	402.032013	1277.023315	423.155029	372.298889	1262.766602	95.127228	323.598755	1333.093506	266.999725	448.337097	1189.456909	266.934052	301.119873	986.419189	524.800903	390.891907	936.020813	52.383553	332.664581	756.828613	546.814178	491.473114	754.334412	121.787647	373.496002	851.272644	415.491455	326.137177	866.329834	156.097656	192.332748	904.632874	367.548431	175.854614	904.953003	261.683777	184.093681	904.792938	314.616104	223.880554	1085.266479	292.359589	454.796692	995.645996	264.512756	369.593689	579.676697	516.803467	475.161835	437.760986	426.139038	486.915070	286.268066	482.311096	511.582672	64.675102	410.365784	460.415680	47.714378	363.649902	629.074707	64.097099	361.119202	313.985168	573.906494	84.092255	360.452362	402.194733	186.570541	279.600647	264.419983	134.538956	194.117249	60.700081	223.867737	151.506485	64.219582	270.194458	326.463135	39.946701	257.061127
718	7.17000000	406.209045	1276.220337	423.960846	375.548248	1262.469360	95.922943	327.444916	1332.667114	268.063782	451.969299	1188.872681	267.493591	305.360016	985.572571	525.481506	393.382935	935.414368	53.370262	336.214294	755.871918	547.640594	492.961731	753.483490	123.476212	377.714142	850.722778	415.347351	329.069946	866.045715	156.328537	196.244324	904.129028	368.648438	179.228928	904.572632	262.801300	187.736626	904.350830	315.724869	227.582352	1084.865112	293.359680	458.338837	995.056335	264.635773	373.721100	578.775879	515.781494	478.588623	437.264526	424.898560	489.508209	285.401367	481.525208	512.328247	63.874996	410.094788	460.981598	47.148460	363.599426	629.745239	61.923031	360.538300	317.129303	573.519897	84.365341	362.417084	401.489258	186.750092	280.890320	264.102448	134.798462	194.222290	60.883408	223.982239	151.681793	64.521194	270.333008	326.510437	39.929665	257.039337
719	7.18000000	410.441498	1275.442627	424.821838	378.882965	1262.230225	96.782768	331.361328	1332.296387	269.193909	455.652374	1188.317261	268.120270	309.693176	984.742737	526.222595	395.849976	934.866089	54.372215	339.913773	754.936493	548.526917	494.371506	752.666046	125.166389	381.923126	850.244080	415.229156	332.059906	865.788574	156.590088	200.154358	903.695129	369.745758	182.626312	904.237610	263.910736	191.390335	903.966370	316.828247	231.310165	1084.527710	294.354279	461.915649	994.496704	264.790314	378.265472	578.147705	514.841431	482.189941	436.900208	423.717438	492.279388	284.655884	480.749756	512.809570	63.148235	409.849365	461.261871	46.740929	363.569427	630.175476	59.709991	360.002563	320.338989	573.157593	84.684364	364.362823	400.805176	186.972443	282.159698	263.816986	135.083481	194.328354	61.094570	224.108551	151.866486	64.848068	270.486633	326.565491	39.907585	257.017517
720	7.19000000	414.727203	1274.707153	425.727844	382.314728	1262.064087	97.701172	335.346008	1331.997681	270.380219	459.385590	1187.804810	268.807922	314.111542	983.947571	527.011902	398.297180	934.392639	55.388039	343.755493	754.043457	549.469666	495.705048	751.894531	126.849445	386.110260	849.856567	415.152985	335.118591	865.569397	156.883209	204.055206	903.349609	370.820160	186.049881	903.960510	264.994415	195.052544	903.655060	317.907288	235.058792	1084.270996	295.332916	465.523834	993.980957	264.973602	383.182098	577.821777	514.022217	485.933197	436.668152	422.615692	495.242096	284.041595	479.998779	513.167175	62.516979	409.617706	461.406555	46.492710	363.541138	630.511963	57.555130	359.507690	323.548523	572.826294	85.053864	366.274109	400.153564	187.238647	283.394043	263.573486	135.393936	194.433182	61.336807	224.248123	152.061249	65.202942	270.658081	326.627686	39.879509	256.995392
721	7.20000000	419.059570	1274.031982	426.668915	385.849731	1261.985962	98.672150	339.391785	1331.785767	271.612183	463.165680	1187.351685	269.549377	318.604980	983.204956	527.837036	400.730530	934.012329	56.416904	347.732788	753.215179	550.465271	496.966248	751.182434	128.517719	390.268433	849.581421	415.133789	338.256561	865.398804	157.208618	207.942001	903.107422	371.852631	189.504562	903.752136	266.036407	198.723282	903.429779	318.944519	238.823517	1084.108398	296.288116	469.158569	993.524902	265.183777	388.413849	577.812439	513.356506	489.783142	436.562500	421.609741	498.386993	283.558014	479.287628	513.502380	61.994915	409.393555	461.525848	46.395157	363.503693	630.858521	55.540657	359.050964	326.701233	572.534363	85.476730	368.137512	399.545807	187.548096	284.579987	263.382202	135.729065	194.534927	61.613308	224.402649	152.267136	65.589142	270.850525	326.696472	39.844810	256.972443
